{"title":"Freeheld.2015.BRRip.480p.x264.AAC-VYTO [P2PDL]","uid":13403112,"size":399509654,"categoryP":"video","categoryS":"movies","magnet":"?xt=urn:btih:8e4d7e853a761fedf053817a41828a7ddb14a07f&amp;dn=Freeheld.2015.BRRip.480p.x264.AAC-VYTO+%5BP2PDL%5D&amp;tr=udp%3A%2F%2Ftracker.leechers-paradise.org%3A6969&amp;tr=udp%3A%2F%2Fzer0day.ch%3A1337&amp;tr=udp%3A%2F%2Fopen.demonii.com%3A1337&amp;tr=udp%3A%2F%2Ftracker.coppersurfer.tk%3A6969&amp;tr=udp%3A%2F%2Fexodus.desync.com%3A6969","seeders":1,"leechers":0,"uploader":"VYTOP2PDL","files":7,"time":1454398830,"description":"____    ____ ____    ____ .___________.  ______   \r\n     /   /      /   / |           | /  __    \r\n    /   /      /   /  `---|  |----`|  |  |  | \r\n        /     _    _/       |  |     |  |  |  | \r\n       /        |  |         |  |     |  `--'  | \r\n    __/         |__|         |__|      ______/  \r\n                                                  \r\nPresenting Small Encodes with quality for years!\r\n                                                                                                   \r\n                                                                                                   \r\n\r\n\r\nFreeheld.2015.BRRip.480p.x264.AAC-VYTO\r\n\r\n\r\nGenre:  Biography, Drama, Romance \nhttp://www.imdb.com/title/tt1658801/\r\n\r\n\r\n\r\nFormat                                   : MPEG-4\r\nFile size                                : 376 MiB\r\nDuration                                 : 1h 43mn\r\nOverall bit rate                         : 508 Kbps\r\n\r\nVideo\r\nFormat                                   : AVC\r\nBit rate                                 : 474 Kbps\r\nWidth                                    : 720 pixels\r\nHeight                                   : 384 pixels\r\nDisplay aspect ratio                     : 1.85:1\r\nFrame rate mode                          : Constant\r\nFrame rate                               : 23.976  fps\r\nBit depth                                : 8 bits\r\nStream size                              : 349 MiB (93%)\r\nWriting library                          : x264\r\n\r\nAudio\r\nFormat                                   : AAC\r\nBit rate mode                            : Variable\r\nBit rate                                 : 32.0 Kbps\r\nChannel(s)                               : 2 channels\r\nChannel positions                        : Front: L R\r\nSampling rate                            : 48.0 KHz\r\nStream size                              : 23.6 MiB (6%)\r\nLanguage                                 : English\r\n\r\nSubtitle                                 : Yes (English)\r\n\r\nScreen Shots: (Click to view)\r\n \nhttp://ititli.com/X9d \nhttp://ititli.com/X90 \nhttp://ititli.com/X9A \nhttp://ititli.com/X9l \nhttp://ititli.com/X9m \nhttp://ititli.com/X9x \nhttp://ititli.com/X97 \nhttp://ititli.com/X9C \nhttp://ititli.com/X9F \nhttp://ititli.com/X9J \nhttp://ititli.com/X95 \nhttp://ititli.com/X9B\r\n\r\n----------------------------------------------------------------------------------------------------\r\n\r\n\r\nEncoder Notes: Looking For Early Access To Anything You Can Provide WEBDL, DVDScr, DVDR, BluRay,\r\nDirect Audio, Music Releases and Seedboxes. If You Got anything to offer please contact us.\r\n\r\nSupport us by donating BC - 1FgwdzPsd1y25Gea8wP1qni35uGCtmkRCD\r\n\r\nSend some love!\r\nFind us and join us!","torrent":{"xt":"urn:btih:8e4d7e853a761fedf053817a41828a7ddb14a07f","amp;dn":"Freeheld.2015.BRRip.480p.x264.AAC-VYTO+%5BP2PDL%5D","amp;tr":["udp%3A%2F%2Ftracker.leechers-paradise.org%3A6969","udp%3A%2F%2Fzer0day.ch%3A1337","udp%3A%2F%2Fopen.demonii.com%3A1337","udp%3A%2F%2Ftracker.coppersurfer.tk%3A6969","udp%3A%2F%2Fexodus.desync.com%3A6969"],"infoHash":"8e4d7e853a761fedf053817a41828a7ddb14a07f","infoHashBuffer":{"type":"Buffer","data":[142,77,126,133,58,118,31,237,240,83,129,122,65,130,138,125,219,20,160,127]},"announce":[],"urlList":[]}}